<svg width="21" height="15" viewBox="0 0 21 15" fill="none" xmlns="http://www.w3.org/2000/svg">
<path d="M18.5223 0H2.16388C1.59018 0.000652897 1.04017 0.228842 0.634506 0.634506C0.228842 1.04017 0.000652897 1.59018 0 2.16388V12.8361C0.000652897 13.4098 0.228842 13.9598 0.634506 14.3655C1.04017 14.7712 1.59018 14.9993 2.16388 15H18.5223C19.096 14.9993 19.646 14.7712 20.0516 14.3655C20.4573 13.9598 20.6855 13.4098 20.6862 12.8361V2.16388C20.6855 1.59018 20.4573 1.04016 20.0517 0.634496C19.646 0.228828 19.096 0.000641487 18.5223 0ZM14.6749 7.49706L19.8206 3.45848V12.4922L14.6749 7.49706ZM2.16388 0.865551H18.5223C18.8665 0.865941 19.1965 1.00285 19.4399 1.24625C19.6833 1.48965 19.8202 1.81966 19.8206 2.16388V2.35819L11.4936 8.89388C11.1891 9.13156 10.8139 9.26052 10.4276 9.2602C10.0414 9.25989 9.66638 9.13033 9.36232 8.89215L0.865551 2.35655V2.16388C0.865941 1.81966 1.00285 1.48965 1.24625 1.24625C1.48965 1.00285 1.81966 0.865941 2.16388 0.865551ZM6.16437 7.52424L0.865551 12.5096V3.44853L6.16437 7.52424ZM18.5223 14.1344H2.16388C1.94223 14.1343 1.7243 14.0775 1.53084 13.9693C1.33738 13.8611 1.17483 13.7052 1.05866 13.5164L6.85932 8.05915L8.832 9.57646C9.28821 9.93282 9.85053 10.1263 10.4294 10.1262C11.0083 10.126 11.5705 9.93223 12.0266 9.57564L13.9879 8.03664L19.6297 13.513C19.5138 13.7027 19.3511 13.8595 19.1572 13.9683C18.9633 14.0771 18.7447 14.1343 18.5223 14.1344Z" fill="black"/>
</svg>
