<svg width="24" height="19" viewBox="0 0 24 19" fill="none" xmlns="http://www.w3.org/2000/svg">
<path d="M23.3398 2.27633C22.4626 2.65688 21.5349 2.90844 20.5857 3.0232C21.5872 2.42491 22.3376 1.48369 22.6979 0.374137C21.7568 0.934365 20.7266 1.32908 19.6521 1.54113C18.9339 0.762244 17.9774 0.24378 16.9328 0.0670455C15.8881 -0.109689 14.8144 0.0653032 13.8799 0.564577C12.9454 1.06385 12.2031 1.85917 11.7694 2.82579C11.3356 3.79241 11.2349 4.87567 11.4832 5.90566C9.58031 5.80942 7.71898 5.31394 6.02009 4.45143C4.3212 3.58892 2.82277 2.37866 1.62211 0.899281C1.20099 1.63468 0.979709 2.46751 0.98027 3.31495C0.978777 4.10194 1.17191 4.8771 1.54247 5.57139C1.91304 6.26569 2.44953 6.85759 3.10419 7.29438C2.34329 7.27367 1.59864 7.0695 0.933591 6.69921V6.75756C0.939294 7.86024 1.32569 8.9271 2.02743 9.77769C2.72916 10.6283 3.70315 11.2104 4.78465 11.4255C4.36834 11.5522 3.93611 11.619 3.50097 11.6239C3.19975 11.6204 2.89929 11.5931 2.60238 11.5422C2.91036 12.4908 3.50636 13.3197 4.30744 13.9137C5.10852 14.5077 6.07485 14.8373 7.07195 14.8565C5.38822 16.1813 3.30944 16.9044 1.16699 16.9104C0.776905 16.9116 0.387132 16.8883 0 16.8403C2.18744 18.2527 4.73659 19.0024 7.34036 18.9993C9.13716 19.0179 10.9197 18.6784 12.5838 18.0004C14.2479 17.3225 15.7602 16.3197 17.0324 15.0508C18.3047 13.7818 19.3113 12.272 19.9935 10.6097C20.6757 8.94732 21.0198 7.16569 21.0058 5.36885C21.0058 5.17046 21.0058 4.9604 21.0058 4.75034C21.9215 4.06743 22.7113 3.23025 23.3398 2.27633Z" fill="black"/>
</svg>
